<mxfile host="app.diagrams.net" modified="2024-05-13T01:14:34.246Z" agent="Mozilla/5.0 (Windows NT 10.0; Win64; x64) AppleWebKit/537.36 (KHTML, like Gecko) Chrome/124.0.0.0 Safari/537.36" etag="pMgs64dBkMRsPU2-9qCp" version="24.4.0" type="github">
  <diagram id="fza2rLorhXfs80clsLxZ" name="EXERCISE-3">
    <mxGraphModel dx="1120" dy="434" grid="1" gridSize="10" guides="1" tooltips="1" connect="1" arrows="1" fold="1" page="1" pageScale="1" pageWidth="827" pageHeight="1169" math="0" shadow="0">
      <root>
        <mxCell id="0" />
        <mxCell id="1" parent="0" />
        <mxCell id="hKzSmmDrq9I5xEqFat1S-3" value="" style="edgeStyle=orthogonalEdgeStyle;rounded=0;orthogonalLoop=1;jettySize=auto;html=1;" parent="1" source="hKzSmmDrq9I5xEqFat1S-1" target="hKzSmmDrq9I5xEqFat1S-2" edge="1">
          <mxGeometry relative="1" as="geometry" />
        </mxCell>
        <mxCell id="hKzSmmDrq9I5xEqFat1S-1" value="INICIO" style="rounded=1;whiteSpace=wrap;html=1;" parent="1" vertex="1">
          <mxGeometry x="359" y="50" width="110" height="40" as="geometry" />
        </mxCell>
        <mxCell id="hKzSmmDrq9I5xEqFat1S-5" value="" style="edgeStyle=orthogonalEdgeStyle;rounded=0;orthogonalLoop=1;jettySize=auto;html=1;" parent="1" source="hKzSmmDrq9I5xEqFat1S-2" target="hKzSmmDrq9I5xEqFat1S-4" edge="1">
          <mxGeometry relative="1" as="geometry" />
        </mxCell>
        <mxCell id="hKzSmmDrq9I5xEqFat1S-2" value="a" style="shape=parallelogram;perimeter=parallelogramPerimeter;whiteSpace=wrap;html=1;fixedSize=1;" parent="1" vertex="1">
          <mxGeometry x="354" y="120" width="120" height="30" as="geometry" />
        </mxCell>
        <mxCell id="5EgrzclbgAvtBUJ8e6qr-5" value="" style="edgeStyle=orthogonalEdgeStyle;rounded=0;orthogonalLoop=1;jettySize=auto;html=1;" parent="1" source="hKzSmmDrq9I5xEqFat1S-4" target="5EgrzclbgAvtBUJ8e6qr-4" edge="1">
          <mxGeometry relative="1" as="geometry" />
        </mxCell>
        <mxCell id="hKzSmmDrq9I5xEqFat1S-4" value="b" style="shape=parallelogram;perimeter=parallelogramPerimeter;whiteSpace=wrap;html=1;fixedSize=1;" parent="1" vertex="1">
          <mxGeometry x="354" y="190" width="120" height="30" as="geometry" />
        </mxCell>
        <mxCell id="hKzSmmDrq9I5xEqFat1S-9" value="" style="edgeStyle=orthogonalEdgeStyle;rounded=0;orthogonalLoop=1;jettySize=auto;html=1;" parent="1" source="hKzSmmDrq9I5xEqFat1S-6" target="hKzSmmDrq9I5xEqFat1S-8" edge="1">
          <mxGeometry relative="1" as="geometry" />
        </mxCell>
        <mxCell id="hKzSmmDrq9I5xEqFat1S-11" value="" style="edgeStyle=orthogonalEdgeStyle;rounded=0;orthogonalLoop=1;jettySize=auto;html=1;" parent="1" source="hKzSmmDrq9I5xEqFat1S-6" target="hKzSmmDrq9I5xEqFat1S-10" edge="1">
          <mxGeometry relative="1" as="geometry" />
        </mxCell>
        <mxCell id="hKzSmmDrq9I5xEqFat1S-6" value="b==0 ?" style="rhombus;whiteSpace=wrap;html=1;" parent="1" vertex="1">
          <mxGeometry x="374" y="390" width="80" height="80" as="geometry" />
        </mxCell>
        <mxCell id="hKzSmmDrq9I5xEqFat1S-8" value="IMPOSIBLE" style="whiteSpace=wrap;html=1;" parent="1" vertex="1">
          <mxGeometry x="550" y="407.5" width="90" height="45" as="geometry" />
        </mxCell>
        <mxCell id="hKzSmmDrq9I5xEqFat1S-13" value="" style="edgeStyle=orthogonalEdgeStyle;rounded=0;orthogonalLoop=1;jettySize=auto;html=1;" parent="1" source="hKzSmmDrq9I5xEqFat1S-10" target="hKzSmmDrq9I5xEqFat1S-12" edge="1">
          <mxGeometry relative="1" as="geometry" />
        </mxCell>
        <mxCell id="5EgrzclbgAvtBUJ8e6qr-2" value="" style="edgeStyle=orthogonalEdgeStyle;rounded=0;orthogonalLoop=1;jettySize=auto;html=1;" parent="1" source="hKzSmmDrq9I5xEqFat1S-10" target="5EgrzclbgAvtBUJ8e6qr-1" edge="1">
          <mxGeometry relative="1" as="geometry" />
        </mxCell>
        <mxCell id="hKzSmmDrq9I5xEqFat1S-10" value="b!= 0?" style="rhombus;whiteSpace=wrap;html=1;" parent="1" vertex="1">
          <mxGeometry x="374" y="497.5" width="80" height="80" as="geometry" />
        </mxCell>
        <mxCell id="hKzSmmDrq9I5xEqFat1S-12" value="a/b" style="whiteSpace=wrap;html=1;" parent="1" vertex="1">
          <mxGeometry x="570" y="515" width="100" height="45" as="geometry" />
        </mxCell>
        <mxCell id="5EgrzclbgAvtBUJ8e6qr-1" value="FIN" style="rounded=1;whiteSpace=wrap;html=1;" parent="1" vertex="1">
          <mxGeometry x="376" y="610" width="76" height="45" as="geometry" />
        </mxCell>
        <mxCell id="5EgrzclbgAvtBUJ8e6qr-6" value="" style="edgeStyle=orthogonalEdgeStyle;rounded=0;orthogonalLoop=1;jettySize=auto;html=1;" parent="1" source="5EgrzclbgAvtBUJ8e6qr-4" target="hKzSmmDrq9I5xEqFat1S-6" edge="1">
          <mxGeometry relative="1" as="geometry" />
        </mxCell>
        <mxCell id="5EgrzclbgAvtBUJ8e6qr-4" value="A y B estan en el rango de 0 a 1,000,000 ?" style="rhombus;whiteSpace=wrap;html=1;" parent="1" vertex="1">
          <mxGeometry x="319" y="250" width="190" height="120" as="geometry" />
        </mxCell>
        <mxCell id="TJX5h0WgP6zoPcaizRcB-1" value="SI" style="text;strokeColor=none;align=center;fillColor=none;html=1;verticalAlign=middle;whiteSpace=wrap;rounded=0;" parent="1" vertex="1">
          <mxGeometry x="449" y="400" width="60" height="30" as="geometry" />
        </mxCell>
        <mxCell id="TJX5h0WgP6zoPcaizRcB-2" value="SI" style="text;strokeColor=none;align=center;fillColor=none;html=1;verticalAlign=middle;whiteSpace=wrap;rounded=0;" parent="1" vertex="1">
          <mxGeometry x="454" y="510" width="60" height="30" as="geometry" />
        </mxCell>
        <mxCell id="TJX5h0WgP6zoPcaizRcB-3" value="NO" style="text;strokeColor=none;align=center;fillColor=none;html=1;verticalAlign=middle;whiteSpace=wrap;rounded=0;" parent="1" vertex="1">
          <mxGeometry x="354" y="470" width="60" height="30" as="geometry" />
        </mxCell>
        <mxCell id="TJX5h0WgP6zoPcaizRcB-4" value="NO" style="text;strokeColor=none;align=center;fillColor=none;html=1;verticalAlign=middle;whiteSpace=wrap;rounded=0;" parent="1" vertex="1">
          <mxGeometry x="354" y="577.5" width="60" height="30" as="geometry" />
        </mxCell>
      </root>
    </mxGraphModel>
  </diagram>
</mxfile>
